<svg width="50" height="48" viewBox="0 0 50 48" fill="none" xmlns="http://www.w3.org/2000/svg">
<path fill-rule="evenodd" clip-rule="evenodd" d="M24.6071 0C11.0117 0 0 11.0117 0 24.6071C0 35.4957 7.04377 44.6926 16.8251 47.953C18.0554 48.1683 18.5168 47.4301 18.5168 46.7842C18.5168 46.1997 18.486 44.2619 18.486 42.2011C12.3035 43.3392 10.7041 40.6939 10.2119 39.3098C9.9351 38.6023 8.7355 36.4184 7.6897 35.834C6.82846 35.3726 5.5981 34.2346 7.65894 34.2038C9.59675 34.173 10.9809 35.9878 11.4423 36.726C13.6569 40.4478 17.1942 39.402 18.6091 38.7561C18.8244 37.1566 19.4703 36.0801 20.1778 35.4649C14.7027 34.8497 8.98157 32.7274 8.98157 23.3152C8.98157 20.6392 9.9351 18.4245 11.5038 16.702C11.2577 16.0869 10.3965 13.5646 11.7499 10.1812C11.7499 10.1812 13.8107 9.53523 18.5168 12.7034C20.4854 12.1497 22.577 11.8729 24.6686 11.8729C26.7602 11.8729 28.8518 12.1497 30.8203 12.7034C35.5264 9.50447 37.5873 10.1812 37.5873 10.1812C38.9407 13.5646 38.0794 16.0869 37.8333 16.702C39.402 18.4245 40.3556 20.6084 40.3556 23.3152C40.3556 32.7581 34.6037 34.8497 29.1286 35.4649C30.0206 36.2339 30.7896 37.7103 30.7896 40.0172C30.7896 43.3084 30.7588 45.9537 30.7588 46.7842C30.7588 47.4301 31.2202 48.1991 32.4506 47.953C37.3354 46.3037 41.5801 43.1642 44.5873 38.9763C47.5944 34.7883 49.2126 29.7628 49.2141 24.6071C49.2141 11.0117 38.2024 0 24.6071 0Z" fill="black"/>
</svg>
