<svg width="49" height="48" viewBox="0 0 49 48" fill="none" xmlns="http://www.w3.org/2000/svg">
<path d="M41.1124 40.8989H34.0003V29.7609C34.0003 27.1049 33.9529 23.6859 30.3013 23.6859C26.597 23.6859 26.0302 26.5797 26.0302 29.5675V40.8982H18.9184V17.9939H25.7458V21.1241H25.8414C26.5247 19.9557 27.512 18.9946 28.6983 18.3431C29.8846 17.6915 31.2254 17.3739 32.5779 17.4241C39.7864 17.4241 41.1154 22.1656 41.1154 28.334L41.1124 40.8989ZM10.8934 14.8632C8.61392 14.8636 6.76573 13.016 6.76536 10.7366C6.76498 8.45712 8.61242 6.60893 10.8919 6.60855C13.1713 6.60799 15.0195 8.45562 15.0199 10.7351C15.0201 11.8297 14.5854 12.8796 13.8116 13.6537C13.0377 14.4279 11.988 14.863 10.8934 14.8632ZM14.4495 40.8991H7.32992V17.9939H14.4493V40.8989L14.4495 40.8991ZM44.658 0.00349348H3.75617C1.82305 -0.0182565 0.237736 1.53031 0.214111 3.46343V44.5359C0.236986 46.4699 1.82211 48.02 3.75599 47.9997H44.658C46.596 48.0237 48.1873 46.4737 48.2141 44.5359V3.46024C48.1865 1.52337 46.595 -0.0250065 44.658 0.00030598" fill="#0A66C2"/>
</svg>
